<?xml version="1.0" encoding="utf-8"?>
<!-- Generator: Adobe Illustrator 16.0.0, SVG Export Plug-In . SVG Version: 6.00 Build 0)  -->
<!DOCTYPE svg PUBLIC "-//W3C//DTD SVG 1.1//EN" "http://www.w3.org/Graphics/SVG/1.1/DTD/svg11.dtd">
<svg version="1.1" id="Layer_1" xmlns="http://www.w3.org/2000/svg" xmlns:xlink="http://www.w3.org/1999/xlink" x="0px" y="0px"
	 width="500.364px" height="203.057px" viewBox="0 0 500.364 203.057" enable-background="new 0 0 500.364 203.057"
	 xml:space="preserve">
<g>
	<defs>
		<rect id="SVGID_1_" y="-48.19" width="579.684" height="296.22"/>
	</defs>
	<clipPath id="SVGID_2_">
		<use xlink:href="#SVGID_1_"  overflow="visible"/>
	</clipPath>
	<path clip-path="url(#SVGID_2_)" fill="#231F20" d="M500.424,100.911v-3.878h-33.523V33.039h-3.543v67.872H500.424z
		 M448.499,100.911v-3.878h-33.523v-28.41h28.943v-3.878h-28.943V36.917h32.313v-3.878h-35.855v67.872H448.499z M385.125,62.66
		c-3.715,9.793-7.445,19.668-11.189,29.622c-0.115,0.453-0.246,0.906-0.389,1.357c-0.145,0.452-0.273,0.905-0.389,1.356
		c-0.117-0.451-0.246-0.904-0.389-1.356c-0.145-0.451-0.273-0.904-0.389-1.357c-3.746-9.954-7.475-19.829-11.189-29.622
		s-7.445-19.666-11.189-29.621h-3.629c4.494,11.895,8.957,23.723,13.393,35.487c4.436,11.766,8.9,23.595,13.393,35.488
		c4.492-11.894,8.955-23.723,13.391-35.488c4.436-11.765,8.9-23.593,13.393-35.487h-3.627
		C392.569,42.994,388.84,52.867,385.125,62.66 M333.069,65.424c-4.436-11.764-8.898-23.593-13.393-35.487
		c-4.492,11.895-8.957,23.724-13.391,35.487c-4.436,11.766-8.898,23.595-13.393,35.487h3.715c1.844-4.848,3.672-9.696,5.486-14.544
		s3.643-9.696,5.486-14.544h24.279c1.842,4.848,3.672,9.696,5.486,14.544s3.643,9.696,5.486,14.544h3.629
		C341.967,89.019,337.504,77.189,333.069,65.424 M325.422,54.758c1.643,4.331,3.297,8.727,4.969,13.188h-21.342
		c1.844-4.848,3.701-9.663,5.572-14.447c1.871-4.783,3.557-9.631,5.055-14.544c0.115,0.453,0.244,0.906,0.391,1.357
		c0.143,0.453,0.271,0.905,0.387,1.356C322.124,46.065,323.782,50.428,325.422,54.758 M254.014,100.911v-31.9h8.208
		c0.519,0,1.022-0.015,1.513-0.048c0.487-0.031,0.992-0.081,1.512-0.146c2.245,5.366,4.491,10.699,6.739,15.999
		c2.245,5.301,4.492,10.665,6.738,16.095h3.888c-2.246-5.43-4.508-10.826-6.781-16.192c-2.276-5.364-4.566-10.795-6.87-16.289
		c4.204-0.97,7.415-2.989,9.634-6.061c2.217-3.069,3.327-6.932,3.327-11.586c0-3.167-0.636-5.882-1.901-8.145
		c-1.268-2.263-2.838-4.104-4.709-5.527c-1.872-1.421-3.874-2.455-6.005-3.103c-2.131-0.646-4.09-0.97-5.875-0.97h-12.96v67.872
		H254.014z M254.014,36.917h9.072c2.13,0,4.132,0.373,6.004,1.115c1.872,0.744,3.5,1.762,4.882,3.055s2.462,2.78,3.24,4.46
		c0.778,1.682,1.165,3.428,1.165,5.236c0,1.551-0.229,3.151-0.69,4.799c-0.461,1.649-1.282,3.186-2.462,4.606
		c-1.182,1.422-2.766,2.586-4.752,3.489c-1.987,0.906-4.479,1.358-7.475,1.358h-8.984V36.917z M196.299,33.039v3.878h22.118v63.994
		h3.543V36.917h22.118v-3.878H196.299z"/>
	<path clip-path="url(#SVGID_2_)" fill="#F5821F" d="M76.137,99.031c0-1.292,0.043-2.728,0.139-4.3
		c0.091-1.569,0.138-2.956,0.138-4.161v-2.635c0.555-1.665,2.124-2.865,4.716-3.607c2.588-0.736,5.453-1.2,8.6-1.387
		c3.142-0.183,6.285-0.183,9.431,0c3.143,0.187,5.453,0.277,6.936,0.277c0.368,0,0.97,0.047,1.803,0.139
		c0.832,0.096,1.707,0.139,2.635,0.139h2.497l2.774,2.219l-2.774,50.766H78.634c-0.373-3.143-0.694-5.869-0.971-8.184
		c-0.278-2.31-0.555-4.621-0.833-6.935c-0.277-2.311-0.416-4.205-0.416-5.688v-1.941c0-1.109-0.047-2.449-0.138-4.022
		c-0.096-1.568-0.139-3.095-0.139-4.577v-3.329V99.031z M76.553,194.319c1.014,1.205,2.124,2.357,3.329,3.468
		c1.2,1.109,2.496,2.175,3.883,3.19c1.388,1.018,2.818,1.712,4.3,2.079c1.292-1.291,2.033-2.539,2.219-3.744
		c0.183-1.2,0.278-2.727,0.278-4.577c0-3.512-0.373-6.936-1.11-10.265c-0.741-3.328-1.482-6.796-2.219-10.401
		c-0.741-3.607-1.387-7.213-1.942-10.819c-0.555-3.605-0.832-7.256-0.832-10.958h31.069l7.213,37.172
		c0,0.373,0.32,0.833,0.971,1.388c0.645,0.555,1.387,1.019,2.219,1.387c0.832,0.373,1.617,0.742,2.358,1.109
		c0.737,0.373,1.2,0.556,1.387,0.556h0.832h1.387c0.182-0.183,0.555-0.556,1.11-1.11c0.554-0.555,0.923-0.923,1.109-1.108v-1.388
		c0-4.438-0.789-8.69-2.358-12.761c-1.573-4.066-2.358-8.599-2.358-13.593v-2.496c0-1.11,0.044-2.263,0.139-3.468
		c0.091-1.201,0.139-2.358,0.139-3.468v-2.22c1.664,0,4.716-0.091,9.154-0.277c4.439-0.182,9.059-0.416,13.87-0.693
		c4.807-0.277,9.384-0.507,13.732-0.693c4.343-0.182,2.581,0.214,4.245,0.028c0.555,0,1.664-0.183,3.329-0.555
		c1.664-0.369,3.329-0.924,4.993-1.665c1.665-0.736,3.143-1.664,4.439-2.774c1.291-1.109,1.664-2.496,1.109-4.161
		c-0.186-0.923-0.88-1.894-2.08-2.912c-1.205-1.015-1.99-1.525-2.358-1.525l-50.433-0.583V90.154l2.219-8.877
		c1.11,0,3.19-0.14,6.242-0.416c3.051-0.278,6.285-0.556,9.709-0.832c3.42-0.278,6.701-0.556,9.848-0.833
		c3.142-0.277,5.27-0.416,6.38-0.416c0.923-0.183,2.219-0.507,3.884-0.971c1.664-0.46,3.233-1.109,4.715-1.941
		c1.478-0.833,2.727-1.756,3.745-2.774c1.015-1.015,1.526-2.172,1.526-3.468c0-0.737-0.048-1.755-0.139-3.051
		c-0.095-1.292-0.88-1.942-2.358-1.942h-43.552V11.926c0-3.329-0.555-6.146-1.664-8.461c-1.11-2.31-3.329-3.467-6.658-3.467
		c-0.373,0-1.387,0.095-3.052,0.277c-0.186,1.851-0.416,4.95-0.693,9.293c-0.277,4.348-0.555,8.972-0.832,13.87
		c-0.278,4.902-0.512,9.526-0.694,13.87c-0.186,4.348-0.277,7.352-0.277,9.016c0,1.296,0.043,3.008,0.139,5.132
		c0.091,2.128,0.091,4.209,0,6.242c-0.096,2.037-0.555,3.979-1.387,5.825c-0.833,1.851-2.081,3.052-3.745,3.605
		c-1.11,0-3.147,0.278-6.103,0.833c-2.961,0.554-6.151,1.066-9.571,1.525c-3.424,0.464-6.705,0.928-9.848,1.387
		c-3.146,0.464-5.366,0.789-6.657,0.971h-2.219h-2.22c-0.555-2.219-0.927-5.084-1.109-8.599c-0.187-3.511-0.373-7.256-0.555-11.235
		c-0.187-3.975-0.464-7.948-0.832-11.928c-0.373-3.975-1.11-7.581-2.22-10.819c-1.109-3.233-2.774-5.917-4.993-8.045
		c-2.219-2.124-5.088-3.189-8.599-3.189v56.035c-1.483,0.373-3.841,0.971-7.074,1.804c-3.238,0.832-6.658,1.712-10.264,2.635
		c-3.606,0.927-7.074,1.852-10.403,2.774c-3.329,0.928-5.643,1.664-6.935,2.219c-1.851,0.555-3.745,1.019-5.687,1.387
		c-1.941,0.373-3.745,0.929-5.409,1.665c-1.664,0.741-3.051,1.804-4.161,3.19s-1.664,3.099-1.664,5.132
		c3.697,0,7.351-0.369,10.957-1.11c3.606-0.736,7.213-1.568,10.819-2.496c3.606-0.924,7.212-1.756,10.818-2.496
		c3.607-0.737,7.256-1.11,10.958-1.11c0.368,0,1.664,0.048,3.884,0.139c2.219,0.095,3.606,0.14,4.161,0.14
		c1.109,0.371,1.941,2.544,2.496,6.519c0.555,3.979,1.015,8.556,1.387,13.731c0.369,5.18,0.598,10.125,0.694,14.841
		c0.091,4.716,0.139,7.905,0.139,9.57v6.104c-0.928,0.372-1.735,1.187-3.329,1.664c-1.666,0.231-2.8,0.374-3.884,0.555
		L2.497,152.292L0,154.512c1.664,1.664,3.468,2.544,5.409,2.636c1.942,0.095,3.836,0.139,5.687,0.139
		c8.504,0,3.41-0.46,11.641-1.387c8.226-0.925,16.596-1.388,25.105-1.388h3.19h5.271h5.27h3.468
		c0.368,0.555,0.784,1.712,1.248,3.468c0.46,1.76,0.785,3.008,0.971,3.744c0.368,1.11,0.876,3.1,1.526,5.965
		c0.646,2.869,1.339,5.873,2.08,9.016c0.737,3.147,1.431,6.103,2.081,8.877c0.646,2.774,1.062,4.812,1.248,6.104
		C74.75,192.238,75.534,193.118,76.553,194.319"/>
	<path clip-path="url(#SVGID_2_)" fill="#F5821F" d="M492.489,159.581c0.783,0,1.262,0.201,1.436,0.604
		c0.17,0.403,0.256,1.131,0.256,2.184v9.478c-2.307,1.115-4.734,1.673-7.285,1.673c-2.797,0-5.41-0.681-7.838-2.045
		c-2.43-1.36-4.564-3.205-6.404-5.527c-1.84-2.323-3.287-5.064-4.342-8.225c-1.057-3.159-1.582-6.504-1.582-10.035
		c0-3.53,0.525-6.876,1.582-10.034c1.055-3.16,2.502-5.932,4.342-8.317c1.84-2.384,3.975-4.258,6.404-5.621
		c2.428-1.362,5.041-2.045,7.838-2.045c1.863,0,3.631,0.311,5.299,0.93s3.262,1.486,4.783,2.602c0.541-1.053,1.104-2.09,1.693-3.113
		c0.59-1.022,1.152-2.058,1.693-3.112c-2.014-1.486-4.135-2.633-6.367-3.438c-2.232-0.806-4.6-1.208-7.102-1.208
		c-3.633,0-7.041,0.882-10.23,2.647s-5.975,4.151-8.354,7.155c-2.381,3.005-4.258,6.536-5.631,10.593
		c-1.375,4.059-2.061,8.378-2.061,12.962c0,4.585,0.686,8.891,2.061,12.916c1.373,4.027,3.25,7.542,5.631,10.546
		c2.379,3.007,5.164,5.375,8.354,7.109c3.189,1.735,6.598,2.602,10.23,2.602c2.502,0,4.869-0.419,7.102-1.255
		s4.33-1.966,6.293-3.392v-18.398c0-1.919-0.232-3.328-0.699-4.228c-0.467-0.897-1.41-1.347-2.834-1.347H486.6v7.341H492.489z
		 M423.747,122.413c2.895,0,5.594,0.589,8.096,1.765c2.502,1.178,4.674,2.866,6.514,5.064c1.84,2.2,3.287,4.848,4.342,7.944
		c1.055,3.099,1.582,6.567,1.582,10.407c0,3.842-0.527,7.294-1.582,10.361c-1.055,3.065-2.502,5.7-4.342,7.897
		c-1.84,2.199-4.012,3.889-6.514,5.064c-2.502,1.177-5.201,1.765-8.096,1.765h-5.152v-50.269H423.747z M412.485,180.116h9.494
		c5.201,0,9.605-1.006,13.213-3.021c3.605-2.012,6.537-4.583,8.795-7.712c2.256-3.128,3.887-6.612,4.895-10.454
		c1.004-3.84,1.508-7.587,1.508-11.243c0-5.018-0.688-9.523-2.061-13.52c-1.375-3.996-3.238-7.418-5.594-10.269
		c-2.355-2.848-5.104-5.031-8.244-6.55c-3.139-1.518-6.475-2.276-10.008-2.276h-11.998V180.116z"/>
	<path clip-path="url(#SVGID_2_)" fill="#231F20" d="M361.288,180.116v-30.942h35.604v30.942h3.395
		c0.057-10.902,0.096-21.743,0.125-32.522c0.027-10.778,0.068-21.618,0.125-32.521h-3.645v30.385h-35.604v-30.385h-3.395v65.044
		H361.288z M304.321,115.072v3.717h21.197v61.327h3.395v-61.327h21.197v-3.717H304.321z M292.399,180.116h3.396v-65.044h-3.396
		V180.116z M264.497,143.459c-3.532,9.385-7.12,18.848-10.764,28.387c-0.111,0.435-0.234,0.868-0.373,1.302
		c-0.138,0.434-0.262,0.867-0.371,1.301c-0.111-0.434-0.236-0.867-0.373-1.301c-0.139-0.434-0.262-0.867-0.373-1.302
		c-3.644-9.478-7.231-18.924-10.763-28.341c-3.534-9.415-7.067-18.893-10.599-28.433h-3.56c1.435,3.778,2.856,7.525,4.264,11.243
		c1.408,3.717,2.828,7.495,4.264,11.336c-2.318,6.071-4.706,12.173-7.162,18.306c-2.457,6.132-4.624,12.297-6.5,18.491
		c-0.111-0.434-0.235-0.867-0.372-1.301c-0.139-0.434-0.263-0.867-0.373-1.302c-3.643-9.478-7.232-18.924-10.764-28.341
		c-3.533-9.415-7.094-18.893-10.681-28.433h-3.478c4.306,11.398,8.583,22.734,12.834,34.009c4.25,11.275,8.529,22.611,12.834,34.008
		c2.594-6.751,5.258-13.596,7.99-20.535c2.733-6.937,5.203-13.845,7.411-20.721l0.745,2.509l14.656,38.747
		c4.305-11.396,8.582-22.732,12.833-34.008c4.25-11.274,8.528-22.61,12.835-34.009h-3.479
		C271.589,124.612,268.029,134.074,264.497,143.459"/>
</g>
</svg>
